<?xml version="1.0" encoding="iso-8859-1"?>
<!-- Generator: Adobe Illustrator 19.0.0, SVG Export Plug-In . SVG Version: 6.00 Build 0)  -->
<svg version="1.1" id="Capa_1" xmlns="http://www.w3.org/2000/svg" xmlns:xlink="http://www.w3.org/1999/xlink" x="0px" y="0px"
	 viewBox="0 0 60 60" style="enable-background:new 0 0 60 60;" xml:space="preserve">
<g>
	<path d="M0,0.5v59h60v-59H0z M58,57.5H2v-55h56V57.5z"/>
	<path d="M26,15.5h22c0.552,0,1-0.447,1-1s-0.448-1-1-1H26c-0.552,0-1,0.447-1,1S25.448,15.5,26,15.5z"/>
	<path d="M26,31.5h22c0.552,0,1-0.447,1-1s-0.448-1-1-1H26c-0.552,0-1,0.447-1,1S25.448,31.5,26,31.5z"/>
	<path d="M26,47.5h22c0.552,0,1-0.447,1-1s-0.448-1-1-1H26c-0.552,0-1,0.447-1,1S25.448,47.5,26,47.5z"/>
	<path d="M10.293,19.207C10.488,19.402,10.744,19.5,11,19.5s0.512-0.098,0.707-0.293L15,15.914l3.293,3.293
		C18.488,19.402,18.744,19.5,19,19.5s0.512-0.098,0.707-0.293c0.391-0.391,0.391-1.023,0-1.414L16.414,14.5l3.293-3.293
		c0.391-0.391,0.391-1.023,0-1.414s-1.023-0.391-1.414,0L15,13.086l-3.293-3.293c-0.391-0.391-1.023-0.391-1.414,0
		s-0.391,1.023,0,1.414l3.293,3.293l-3.293,3.293C9.902,18.184,9.902,18.816,10.293,19.207z"/>
	<path d="M10.293,35.207C10.488,35.402,10.744,35.5,11,35.5s0.512-0.098,0.707-0.293L15,31.914l3.293,3.293
		C18.488,35.402,18.744,35.5,19,35.5s0.512-0.098,0.707-0.293c0.391-0.391,0.391-1.023,0-1.414L16.414,30.5l3.293-3.293
		c0.391-0.391,0.391-1.023,0-1.414s-1.023-0.391-1.414,0L15,29.086l-3.293-3.293c-0.391-0.391-1.023-0.391-1.414,0
		s-0.391,1.023,0,1.414l3.293,3.293l-3.293,3.293C9.902,34.184,9.902,34.816,10.293,35.207z"/>
	<path d="M10.293,51.207C10.488,51.402,10.744,51.5,11,51.5s0.512-0.098,0.707-0.293L15,47.914l3.293,3.293
		C18.488,51.402,18.744,51.5,19,51.5s0.512-0.098,0.707-0.293c0.391-0.391,0.391-1.023,0-1.414L16.414,46.5l3.293-3.293
		c0.391-0.391,0.391-1.023,0-1.414s-1.023-0.391-1.414,0L15,45.086l-3.293-3.293c-0.391-0.391-1.023-0.391-1.414,0
		s-0.391,1.023,0,1.414l3.293,3.293l-3.293,3.293C9.902,50.184,9.902,50.816,10.293,51.207z"/>
</g>
<g>
</g>
<g>
</g>
<g>
</g>
<g>
</g>
<g>
</g>
<g>
</g>
<g>
</g>
<g>
</g>
<g>
</g>
<g>
</g>
<g>
</g>
<g>
</g>
<g>
</g>
<g>
</g>
<g>
</g>
</svg>
